<?xml version="1.0" encoding="UTF-8" standalone="no"?>
<!-- Created with Inkscape (http://www.inkscape.org/) -->

<svg
   version="1.1"
   id="svg1"
   width="572.4856"
   height="560.67401"
   viewBox="0 0 572.48559 560.67401"
   sodipodi:docname="logo-black-white.svg"
   inkscape:version="1.3.2 (091e20e, 2023-11-25)"
   xml:space="preserve"
   xmlns:inkscape="http://www.inkscape.org/namespaces/inkscape"
   xmlns:sodipodi="http://sodipodi.sourceforge.net/DTD/sodipodi-0.dtd"
   xmlns="http://www.w3.org/2000/svg"
   xmlns:svg="http://www.w3.org/2000/svg"><defs
     id="defs1" /><sodipodi:namedview
     id="namedview1"
     pagecolor="#ffffff"
     bordercolor="#999999"
     borderopacity="1"
     inkscape:showpageshadow="2"
     inkscape:pageopacity="0"
     inkscape:pagecheckerboard="0"
     inkscape:deskcolor="#d1d1d1"
     inkscape:zoom="0.83582041"
     inkscape:cx="306.88411"
     inkscape:cy="544.97353"
     inkscape:window-width="1392"
     inkscape:window-height="1022"
     inkscape:window-x="2145"
     inkscape:window-y="926"
     inkscape:window-maximized="0"
     inkscape:current-layer="g1" /><g
     inkscape:groupmode="layer"
     inkscape:label="Image"
     id="g1"
     transform="translate(-402.37225,-144.59246)"><path
       id="path1"
       style="fill:#000000"
       d="m 676.4945,144.76042 c -0.43325,0.24046 -0.9678,0.73473 -1.625,1.46094 -5.5888,6.17549 -6.02494,15.42195 -1.33984,28.41406 1.84439,5.11477 3.6465,10.88646 4.0039,12.82617 1.3566,7.36182 -2.77413,17.21892 -15.29492,36.50195 -4.2664,6.57059 -7.20627,12.45868 -10.10156,20.23438 -1.59,4.27005 -5.11802,5.22091 -9.82031,2.64453 -5.7348,-3.14201 -7.59144,-6.53195 -7.39844,-13.49609 0.1437,-5.18517 -0.0739,-5.99438 -1.52539,-5.71485 -3.3487,0.64491 -6.56619,8.59082 -6.99219,17.26367 -0.6003,12.22367 2.24716,17.24713 15.99805,28.21875 9.24849,7.37926 12.76548,14.73751 9.74218,20.38672 -1.74709,3.26435 -4.56403,2.24912 -8.45312,-3.04883 -3.8832,-5.29005 -8.35055,-9.01562 -10.81055,-9.01562 -1.2046,0 -1.32893,0.71501 -0.64844,3.73242 0.4969,2.20316 0.40434,6.98781 -0.22656,11.67578 -1.6969,12.60955 -0.72534,20.38641 3.65625,29.25196 6.7816,13.72175 19.9317,23.83141 36.08399,27.73828 6.91159,1.67176 11.10513,1.94375 11.83203,0.76758 1.3747,-2.22438 -3.92037,-9.31736 -10.84766,-14.53125 -8.73039,-6.57101 -11.57486,-11.44078 -11.50586,-19.70118 0.0248,-2.98885 0.58966,-6.71062 1.25586,-8.26953 l 1.21094,-2.83398 3.88281,3.08398 c 2.1346,1.69641 5.00682,3.08594 6.38281,3.08594 2.4367,0 2.48478,-0.13656 1.83008,-5.25 -2.7862,-21.76163 -1.5572,-34.08402 4.58789,-46 l 3.22266,-6.25 0.63476,5.52344 c 0.7423,6.45403 1.54082,8.14482 8.19532,17.36133 6.78489,9.39705 8.70447,13.98428 8.73047,20.86523 0.0121,3.1625 0.3771,5.75 0.8125,5.75 1.55489,0 9.0379,-8.5757 11.125,-12.75 1.16869,-2.3375 2.45221,-4.24904 2.85351,-4.24805 1.1351,0.003 5.8562,8.06795 7.2168,12.33008 1.7818,5.58176 0.86052,17.20094 -1.79688,22.66797 -1.203,2.475 -5.60149,8.73773 -9.77539,13.91797 -8.76829,10.88217 -10.88831,13.93984 -10.16601,14.66211 0.2853,0.2853 3.38307,-0.44272 6.88476,-1.61719 31.41947,-10.53806 48.4156,-40.30958 41.25391,-72.26562 -0.8871,-3.95858 -3.8682,-12.93478 -6.625,-19.94727 -6.33509,-16.11501 -8.26619,-16.63856 -13.20899,-3.57422 -4.61629,12.20137 -15.26991,12.60908 -21.3789,0.81641 -3.3465,-6.46002 -2.53238,-14.03787 3.26172,-30.3086 3.69559,-10.37808 4.56468,-14.08664 4.55468,-19.5 -0.0178,-12.17506 -5.43536,-20.50537 -22.58984,-34.74218 -12.48299,-10.3598 -15.40039,-14.67598 -15.40039,-22.7793 0,-4.48926 -0.3819,-6.05928 -1.68164,-5.33789 z m -32.71289,31.62109 c -0.38133,0.0392 -0.60547,0.18289 -0.60547,0.44532 0,0.21492 0.89062,2.35243 1.97852,4.75 2.50829,5.52661 2.51857,9.62643 0.0508,18.25585 -1.0837,3.7896 -1.73261,7.27495 -1.44141,7.7461 1.1321,1.83171 4.76018,0.70855 7.92188,-2.45313 7.59539,-7.59541 6.49548,-21.41888 -2.12891,-26.75976 -2.08305,-1.28996 -4.63141,-2.10194 -5.77539,-1.98438 z m 90.89062,26.22461 c -0.1822,0.18219 0.30168,2.7741 1.07618,5.75977 1.71929,6.62806 0.74767,11.13378 -3.57422,16.57226 -3.3787,4.2515 -3.84065,7.13637 -1.24805,7.79688 2.2354,0.56952 5.14922,-0.12849 7.97852,-1.91211 5.67219,-3.57577 7.25056,-14.09283 3.19726,-21.30469 -2.0415,-3.63236 -6.53139,-7.81038 -7.42969,-6.91211 z m -193.99609,9.3711 c -12.05899,0.0511 -17.19013,2.08687 -25.0957,9.95117 -11.33648,11.27728 -12.54025,27.40237 -2.77539,37.18164 11.21744,11.234 31.36328,6.30518 31.36328,-7.67383 0,-4.09404 -3.27021,-10 -5.53711,-10 -0.8655,0 -1.27912,0.47538 -0.91992,1.05664 0.3593,0.58125 0.38027,2.14414 0.0469,3.47266 -2.3432,9.33588 -15.58203,7.93186 -15.58203,-1.65235 0,-7.28304 5.37565,-13.82518 13.06055,-15.89453 12.04328,-3.24291 25.45914,7.86322 25.36914,21.00196 -0.0834,12.16978 -9.4604,21.76737 -25.95899,26.56835 -5.23729,1.52402 -8.11827,1.63025 -23.4707,0.86914 -31.62298,-1.56772 -46.51341,-1.21438 -54.51367,1.29297 -3.85749,1.20898 -9.19859,3.64516 -11.86914,5.41407 -4.42683,2.93219 -10.61719,9.94007 -10.61719,12.01953 0,1.2088 0.24408,1.13241 5.22656,-1.65235 9.02861,-5.04618 15.54949,-6.67944 28.77344,-7.20898 10.84877,-0.43442 14.93692,-0.0908 30.95312,2.60547 27.36757,4.60724 41.95668,4.19346 55.00586,-1.56055 23.27328,-10.26231 31.85698,-32.48421 20.95899,-54.25781 -4.5531,-9.09665 -10.412,-15.00901 -18.74219,-18.91406 -4.98859,-2.3386 -6.88549,-2.65644 -15.67578,-2.61914 z m 304.65234,7.00976 -2.22265,1.97461 c -4.8154,4.27527 -22.6559,29.66786 -31.17969,44.37891 -14.97699,25.84841 -18.8467,43.2675 -13.41211,60.38086 2.8691,9.03503 9.91075,20.15592 15.77734,24.91796 5.1045,4.14353 13.27517,8.42571 18.63086,9.76368 6.7434,1.68463 23.06808,0.61413 29.45118,-1.93164 17.96648,-7.1656 30.93646,-27.78127 31.16406,-49.53516 0.1099,-10.50262 -1.22939,-15.16263 -8.58008,-29.88477 -8.66229,-17.34885 -22.58607,-38.64165 -37.66016,-57.58984 z m -11.45703,36.81055 c 0.251,0.25098 -0.88795,4.65951 -2.53125,9.79687 -4.75339,14.85988 -6.37529,24.22999 -6.52539,37.67969 -0.1304,11.67867 -0.2655,12.44082 -2.5,14.25 -3.0371,2.45894 -6.61598,2.43484 -9.11328,-0.0625 -6.33459,-6.33458 -2.44175,-25.63601 9.18164,-45.52539 4.93,-8.4361 10.85988,-16.76711 11.48828,-16.13867 z m -236.80859,8.54297 c -0.43666,0.14412 -0.89781,1.03624 -1.33594,2.8457 -1.3087,5.40514 -7.60309,13.28624 -15.76758,19.74219 -21.77458,17.21796 -36.79185,19.94512 -71.67968,13.01758 -32.08171,-6.37035 -45.46751,-6.71349 -59.34961,-1.51954 -18.50125,6.92221 -25.46374,23.66301 -17.04493,40.98829 l 2.66407,5.48046 1.61523,-6.48046 c 2.07302,-8.31374 4.01651,-11.89744 8.66016,-15.97461 6.07669,-5.33541 11.65043,-7.27252 22.35156,-7.76368 9.87253,-0.45312 14.68022,0.31027 39.5,6.26172 14.99413,3.59539 35.52793,4.48292 47.51172,2.05469 12.51249,-2.53536 22.05239,-7.54736 30.73828,-16.15039 9.35939,-9.27013 13.53429,-17.61912 14.08789,-28.16602 0.44445,-8.46899 -0.6412,-14.7683 -1.95117,-14.33593 z m 277.10547,34.46875 c 0.5887,-0.12696 1.21758,0.78862 1.89453,2.73047 4.10009,11.7615 -2.62972,33.60877 -11.81641,38.35937 -3.57789,1.85022 -4.31469,1.89234 -5.87109,0.33594 -1.9343,-1.93423 -1.4495,-3.30926 3.1543,-8.96094 6.47439,-7.94804 8.60715,-12.88162 9.97265,-23.07617 0.81319,-6.07087 1.68485,-9.17708 2.66602,-9.38867 z m -278.6211,18.26172 c -0.78181,0.1815 -2.32945,1.42618 -4.66015,3.70117 -10.86839,10.60869 -25.57486,15.64429 -45.71094,15.65429 -12.76799,0.006 -21.24884,-1.27953 -40.5,-6.14062 -11.03225,-2.78575 -14.81638,-3.28741 -25,-3.31641 -12.70159,-0.0361 -15.82948,0.81958 -21.34766,5.83399 -9.1098,8.27815 -8.43775,26.7359 1.24219,34.11914 1.99786,1.52385 5.08914,3.11635 6.86914,3.53906 7.40216,1.75781 13.6986,0.21156 18.43945,-4.5293 2.59553,-2.59552 3.29688,-4.12124 3.29688,-7.17382 0,-4.20831 -2.25253,-8.32227 -4.55664,-8.32227 -0.937,0 -1.44336,1.05238 -1.44336,3 0,3.68625 -3.11273,7 -6.57617,7 -3.41413,0 -8.42383,-5.0384 -8.42383,-8.47266 0,-4.67486 2.63461,-8.22282 7.48242,-10.07422 5.8033,-2.21629 14.80636,-1.49314 31.18164,2.50391 17.70281,4.32111 32.50945,6.30555 41.33594,5.54297 22.62898,-1.95511 38.97496,-10.76003 45.97266,-24.76367 2.87537,-5.75409 3.70146,-8.40407 2.39843,-8.10156 z m -73.12304,64.36523 c -1.60544,0 -5.11182,24.89414 -5.23242,37.15234 -0.0147,1.49882 -0.50797,1.46995 -5.26563,-0.3164 -2.8875,-1.08417 -10.84435,-4.70043 -17.68164,-8.03516 -9.2695,-4.52097 -12.83041,-5.81419 -14,-5.08594 -1.03976,0.64741 -2.55011,5.83289 -4.48047,15.38086 -1.60164,7.92207 -3.02479,14.5518 -3.16211,14.73242 -0.36488,0.47997 -25.08155,-4.60702 -30.83398,-6.3457 -2.69991,-0.81605 -5.53513,-1.48242 -6.30078,-1.48242 -2.01233,0 -3.71704,4.94644 -6.19922,18 -1.20273,6.32499 -2.39868,12.5125 -2.65821,13.75 -0.45121,2.1515 -0.909,2.25 -10.45312,2.25 -8.64761,0 -10.24765,0.26718 -11.98047,2 -2.74454,2.74454 -2.58201,4.61203 2.05273,23.71289 2.22851,9.18424 6.06754,25.63769 8.53321,36.5625 2.46568,10.9248 5.0309,20.74783 5.69922,21.83008 1.94558,3.1506 5.56518,3.43867 12.55273,1 3.5073,-1.22406 6.54012,-2.06145 6.74023,-1.86133 0.20013,0.20013 1.7397,7.31556 3.41993,15.81055 1.68024,8.49499 3.29804,16.23281 3.5957,17.19531 0.45514,1.47169 -0.11598,1.75 -3.5918,1.75 -2.27321,0 -5.02506,0.47711 -6.11523,1.06055 -4.00087,2.14118 -3.99205,4.85496 0.0879,24.125 8.33334,39.3594 8.82735,40.99426 12.74805,42.21484 4.56194,1.42022 72.09686,12.59961 76.11523,12.59961 3.475,0 5.16095,-0.58307 7.12305,-2.46289 l 2.57031,-2.46289 24.98438,6.03711 c 13.74128,3.32 37.21025,9.15149 52.15234,12.96094 14.94208,3.80944 27.4572,6.92773 27.8125,6.92773 0.3552,0 4.124,3.31192 8.375,7.36133 8.19209,7.80362 17.71999,13.22721 28.17578,16.03711 16.65148,4.47493 37.10716,-1.75489 51.46875,-15.67383 5.27839,-5.11575 8.2296,-7.15478 12,-8.29297 2.75,-0.83019 26.56054,-6.87124 52.91211,-13.42383 l 47.91211,-11.91406 2.91406,2.45312 c 3.6275,3.05233 6.69156,3.10614 23.52735,0.41993 23.26247,-3.71161 58.18856,-9.99994 60.57226,-10.90625 1.2926,-0.49143 2.86871,-2.16781 3.50391,-3.72657 1.767,-4.33591 11.20486,-51.24092 11.31836,-56.25195 0.1226,-5.40445 -1.73737,-7.08203 -7.85157,-7.08203 -2.36989,0 -4.31907,-0.3375 -4.33007,-0.75 -0.0114,-0.4125 1.44648,-8.28751 3.23828,-17.5 2.01559,-10.36332 3.7074,-16.75 4.4375,-16.75 0.6491,0 3.2795,0.9 5.8457,2 5.78709,2.48063 9.69597,2.5448 11.82227,0.19531 0.95949,-1.06028 4.92695,-15.55465 9.62304,-35.15625 12.19719,-50.91172 12.26602,-50.03906 -3.88476,-50.03906 h -9.89453 l -0.98243,-4.75 c -0.5404,-2.6125 -1.98418,-9.57987 -3.20898,-15.48242 -1.2248,-5.90256 -2.76292,-11.46224 -3.41602,-12.35547 -1.0822,-1.47989 -2.55746,-1.31135 -16.62304,1.89648 -8.48979,1.93619 -17.21136,3.66764 -19.38086,3.84766 l -3.94336,0.32617 -2.23633,-12.9414 c -2.2763,-13.17268 -3.59014,-17.54102 -5.27344,-17.54102 -0.5175,0 -6.26469,2.5293 -12.77148,5.62109 -10.59369,5.03378 -21.41297,9.37891 -23.35547,9.37891 -0.3922,0 -0.95299,-5.96251 -1.24609,-13.25 -0.4793,-11.91554 -2.29092,-22.64637 -4.13282,-24.48828 -0.3754,-0.37537 -4.15349,2.89949 -8.39648,7.27734 -12.40079,12.79489 -22.14575,18.36967 -49.69922,28.42774 -34.90977,12.74335 -46.26812,18.02701 -63.5,29.53711 -16.85468,11.25806 -29.89611,26.66098 -40,47.24414 -2.475,5.04191 -4.83273,9.18588 -5.24023,9.20898 -0.4075,0.0232 -3.04679,-4.56954 -5.86329,-10.20703 -6.57829,-13.16724 -16.89529,-27.64879 -25.30078,-35.51172 -15.58978,-14.58348 -34.77376,-24.79607 -70.79882,-37.69141 -31.46137,-11.26171 -42.21716,-17.21179 -55.90235,-30.92578 -4.18259,-4.19145 -8.07311,-7.62109 -8.64648,-7.62109 z m 6.91406,21.98242 4.11719,3.52539 c 4.94599,4.23357 21.98161,12.9651 33.7207,17.28516 4.675,1.72044 14.80001,5.43702 22.5,8.25781 34.72147,12.71974 59.55308,28.80743 71.41797,46.26953 1.8014,2.65115 3.11833,4.97302 2.92773,5.16016 -0.1905,0.18715 -2.3707,-1.36834 -4.8457,-3.45508 -19.72378,-16.62964 -45.58066,-28.70858 -93.29102,-43.58398 -11.98548,-3.7369 -25.0355,-8.40374 -29,-10.36914 l -7.20898,-3.57227 -0.68555,-7 c -0.377,-3.85 -0.45227,-8.24268 -0.16797,-9.75977 z m 319.83789,0.8457 v 8.93165 c 0,7.40547 -0.314,9.21501 -1.8418,10.59765 -2.34729,2.1243 -13.69252,6.28618 -37.6582,13.81836 -27.83627,8.74865 -44.24882,15.10198 -60,23.22461 -13.43739,6.9294 -28.8962,17.02181 -32.9043,21.48047 -3.89949,4.33775 -3.58031,1.91431 0.51758,-3.92774 8.62039,-12.28912 24.52234,-24.83092 43.38672,-34.21875 9.45719,-4.70641 23.32102,-10.31084 45,-18.18945 16.13368,-5.86337 32.1334,-13.37237 38.5918,-18.11328 z m 39.8457,16.36524 c 0.33724,-0.0828 0.62782,-0.0538 0.78907,0.10742 0.94069,0.94071 2.76919,15.20617 2.15429,16.80859 -0.308,0.80243 -6.70636,3.65924 -14.21875,6.34766 -17.37598,6.21831 -19.2198,7.46827 -11.07031,7.50977 12.24759,0.0624 40.63306,-4.15446 65.14844,-9.67774 1.9327,-0.43543 2.29979,0.20192 3.67969,6.36328 3.28879,14.68441 3.30369,14.18473 -0.4668,15.75782 -1.8492,0.77147 -51.06139,13.32111 -109.36133,27.88867 -58.29994,14.56755 -107.575,26.75908 -109.5,27.09179 -4.0312,0.69676 -12,-2.64664 -12,-5.03515 0,-5.05844 11.0471,-18.34589 23.52148,-28.29102 21.25638,-16.94659 49.40237,-28.98292 96.97852,-41.4707 11.54999,-3.03165 25.50001,-7.04601 31,-8.92188 10.10579,-3.44677 29.92544,-11.99175 32.27344,-13.91406 0.3504,-0.28686 0.73503,-0.48167 1.07226,-0.56445 z m -400.67968,0.67383 c 1.05612,-0.0368 3.43126,0.90967 7.56054,2.97461 16.03501,8.01865 29.90647,12.69627 62.77344,21.16797 32.66257,8.41903 57.07069,17.76256 75.57617,28.93359 18.02308,10.87986 32.25845,23.86318 37.49414,34.19531 2.4327,4.80083 2.475,5.15278 0.84571,6.95313 -0.944,1.04309 -3.33631,2.34646 -5.31641,2.89648 -1.98,0.55002 -4.04961,0.99072 -4.59961,0.97852 -3.1849,-0.0706 -219.89216,-55.0473 -221.17188,-56.10938 -1.82444,-1.51416 -1.34689,-8.06843 1.21875,-16.70703 1.40603,-4.73413 1.84032,-5.27884 3.77149,-4.73437 5.98181,1.68649 32.9282,6.71771 43.17187,8.06054 12.86456,1.68639 26.50977,2.00991 26.50977,0.62891 0,-1.04108 -0.0514,-1.06221 -14.73438,-6.13672 -9.498,-3.28255 -14.71434,-5.38565 -16.04492,-6.46875 -0.32306,-0.26298 1.68079,-14.36533 2.3125,-16.27344 0.0746,-0.22535 0.28077,-0.34711 0.63282,-0.35937 z m -64.81446,51.4707 c 1.88661,0.15985 4.16505,0.50454 6.90039,1.02148 12.80505,2.41999 59.43601,13.36641 61.23828,14.375 1.12754,0.63101 -0.84752,2.89667 -8.39062,9.62696 -15.24296,13.60041 -38.18693,30.49482 -49.02539,36.09961 -5.51303,2.85089 -4.65175,4.86114 -13.61719,-31.75586 -3.06964,-12.53713 -5.44118,-24.00469 -5.26953,-25.48242 0.36946,-3.18068 2.50424,-4.3643 8.16406,-3.88477 z m 532.10742,0.2793 c 9.2362,-0.18377 9.25977,0.23135 1.76368,30.16797 -3.4036,13.59265 -6.66656,26.40234 -7.25196,28.46484 -0.5853,2.0625 -1.60598,3.74067 -2.26757,3.73047 -4.401,-0.0678 -41.30814,-26.36125 -55.20313,-39.32813 l -8,-7.46484 2.82617,-1.09766 c 6.1244,-2.37938 62.52972,-14.36117 68.13281,-14.47265 z m -525.74023,11.38476 c -1.52977,-0.002 -3.00115,0.57015 -3.26953,1.26953 -0.37358,0.97354 6.24413,24.76278 9.03515,32.47852 0.24869,0.6875 0.89931,1.25 1.44532,1.25 2.18844,0 27.51511,-18.4448 33.38086,-24.31055 1.03909,-1.03909 1.50656,-2.27019 1.03906,-2.73437 -0.98331,-0.97634 -37.47707,-7.94813 -41.63086,-7.95313 z m 517.78125,0.26953 c -5.25159,-0.29785 -40.75781,6.89873 -41.22461,8.35547 -0.415,1.29505 13.33708,12.47582 25.51367,20.74414 4.5588,3.09555 8.68804,5.62891 9.17774,5.62891 0.4897,0 1.62624,-2.5875 2.52343,-5.75 0.8973,-3.1625 2.95237,-9.8 4.56836,-14.75 1.616,-4.95 3.05126,-10.125 3.18946,-11.5 0.2273,-2.26021 -0.13175,-2.52341 -3.74805,-2.72852 z m -444.53125,6.22852 64.2832,16.18555 c 35.35587,8.90257 65.44248,16.62733 66.85938,17.16601 2.5104,0.95445 2.55005,1.10996 1.53515,6.06446 -0.5728,2.79623 -1.51485,5.03746 -2.09375,4.98046 -0.5789,-0.057 -4.65273,-1.1394 -9.05273,-2.40429 -4.4,-1.26489 -30.05003,-8.00171 -57,-14.97071 -69.95108,-18.08863 -70,-18.10213 -70,-19.13281 0,-0.51466 1.23044,-2.49985 2.73437,-4.41211 z m 371.08789,0.14844 3.95313,3.86133 c 2.17429,2.12316 3.78768,4.02675 3.58398,4.23046 -0.2038,0.20371 -18.30874,5.00908 -40.23242,10.67969 -21.92368,5.67061 -52.01134,13.46988 -66.86133,17.33203 -14.84999,3.86216 -28.1515,7.28468 -29.55859,7.60547 -2.395,0.546 -2.62435,0.26141 -3.59375,-4.4707 -0.9961,-4.86291 -0.94412,-5.09013 1.39257,-5.97852 1.3359,-0.50792 31.42919,-8.19954 66.87305,-17.09179 z M 689.48864,524.2819 c 3.5266,0.0996 7.11767,1.17963 11.75781,3.26953 6.8814,3.09926 8.08284,3.32672 16.26953,3.06836 5.6719,-0.17899 9.3453,0.13984 10.25,0.89063 2.058,1.70801 1.84106,11.6786 -0.33984,15.61328 -0.9625,1.73649 -7.65535,9.82945 -14.87305,17.98437 -7.21769,8.15492 -15.44721,17.64063 -18.28711,21.07813 -2.83979,3.4375 -5.27205,6.25 -5.40625,6.25 -0.1342,0 -3.13838,-3.44246 -6.67578,-7.64844 -3.53729,-4.20596 -11.34225,-13.09347 -17.34375,-19.75 -16.44258,-18.23731 -16.03547,-17.58197 -16.10547,-25.91797 -0.0554,-6.64531 0.11031,-7.20735 2.44141,-8.3164 1.7452,-0.83032 4.13583,-0.92483 7.91992,-0.3125 6.1318,0.99224 9.64349,0.33057 19.01758,-3.5918 4.38565,-1.83506 7.8484,-2.71676 11.375,-2.61719 z m -0.48828,11.92969 c -3.0011,-0.0853 -24.82422,10.01395 -24.82422,11.48828 0,0.49935 2.60717,3.68238 5.79297,7.07227 3.1859,3.38989 8.63076,9.42656 12.10156,13.41406 3.4708,3.9875 6.61568,7.25 6.98828,7.25 0.3725,0 3.59014,-3.47089 7.14844,-7.71289 3.5582,-4.242 9.16875,-10.61462 12.46875,-14.16016 3.7203,-3.99713 5.5134,-6.61001 4.7207,-6.8789 -0.7032,-0.23851 -5.85994,-2.67501 -11.46093,-5.41407 -5.6011,-2.73904 -11.42215,-5.01559 -12.93555,-5.05859 z m -37.05664,31.72461 2.61523,3.44336 2.61719,3.44531 v 36.14649 c 0,19.88116 0.29811,42.35646 0.66211,49.94531 l 0.66211,13.79883 7.50781,3.46875 c 4.1297,1.90802 10.97605,4.18602 15.21485,5.0625 7.11359,1.47094 8.30132,1.46582 15.41601,-0.0781 4.2394,-0.91998 11.15735,-3.37421 15.37305,-5.45312 l 7.66406,-3.7793 0.25977,-49.35938 c 0.2524,-48.00893 0.31606,-49.43803 2.31836,-52.25 1.13229,-1.59007 2.48134,-2.89062 2.99804,-2.89062 0.9651,0 0.33574,94.6015 -0.69726,104.81055 -0.3804,3.75969 -1.02679,5.46858 -2.20899,5.84765 -0.9187,0.29456 -5.32888,2.05869 -9.80078,3.91992 -4.47189,1.86125 -10.75279,4.06724 -13.95898,4.90235 -10.62669,2.7679 -19.68689,1.40443 -33.26368,-5.00781 -4.04459,-1.91024 -8.15857,-3.47266 -9.14257,-3.47266 -0.9841,0 -2.07834,-0.75307 -2.43164,-1.67383 -0.3533,-0.92075 -0.90501,-26.23328 -1.22461,-56.25 z m -203.81446,24.08203 c 2.29149,0.24772 7.29156,2.45555 16.23047,7.08984 20.48039,10.61786 44.48256,28.39132 54.77539,40.5625 5.32709,6.29924 6.03303,8.17045 3.45899,9.15821 -1.70538,0.65446 -3.75425,0.63318 -6.91797,-0.0703 -1.1,-0.2446 -11.45001,-2.2326 -23,-4.41797 -30.77611,-5.82318 -36.39837,-7.07169 -37.36523,-8.29883 -1.78194,-2.26162 -9.62922,-41.99921 -8.61719,-43.63672 0.20747,-0.33569 0.67172,-0.46929 1.43554,-0.38672 z m 482.3711,0.39258 c 0.29535,0.0946 0.44387,0.31042 0.51367,0.63086 0.6983,3.20508 -6.54976,41.44969 -8.16406,43.07812 -0.6457,0.65129 -9.94884,2.81809 -20.67383,4.81641 -10.72499,1.99832 -23.325,4.45414 -28,5.45508 -22.28538,4.77141 -24.8985,3.26507 -14.19141,-8.18164 13.95819,-14.92244 40.74292,-33.4233 62.1543,-42.93164 5.2788,-2.34422 7.47529,-3.15096 8.36133,-2.86719 z M 458.20934,606.4362 c -2.42545,0 1.29953,20.71031 3.9668,22.05469 0.825,0.41582 10.05001,3.24092 20.5,6.27929 21.57742,6.27373 20.5,6.03555 20.5,4.54297 0,-4.64196 -38.61791,-32.87695 -44.9668,-32.87695 z m 462.56641,0.26562 c -0.9469,-0.94693 -10.66786,4.22314 -21.46875,11.41602 -11.63919,7.75114 -24.76258,19.48631 -23.70508,21.19727 0.3501,0.56657 3.73564,-0.0108 8.33203,-1.41993 4.2583,-1.3055 13.07481,-3.92324 19.5918,-5.8164 6.51699,-1.89316 12.32179,-3.91557 12.90039,-4.49414 1.1198,-1.1198 5.08331,-20.14914 4.34961,-20.88282 z m -253.21484,49.8418 c 1.58192,0.14663 3.87533,0.77998 7.20898,1.92969 9.20379,3.17421 15.71856,3.43424 24.40625,0.97851 11.42169,-3.22857 12.47375,-3.35399 13.87305,-1.66796 1.7461,2.10395 -1.30573,3.95715 -10.85352,6.58984 -10.04229,2.76902 -19.60109,2.66386 -28.33008,-0.31055 -7.17409,-2.44457 -10.37614,-4.70591 -9.24804,-6.53125 0.49145,-0.79515 1.36143,-1.13491 2.94336,-0.98828 z" /></g></svg>
